<svg width="233" height="233" viewBox="0 0 233 233" fill="none" xmlns="http://www.w3.org/2000/svg">
<g filter="url(#filter0_d)">
<rect x="33.761" y="26.894" width="165.783" height="165.783" rx="24.8675" fill="white"/>
</g>
<path d="M67 60H167V160H67V60Z" fill="#F7DF1E"/>
<path d="M93.2937 143.567L100.946 138.936C102.423 141.554 103.766 143.768 106.987 143.768C110.075 143.768 112.022 142.561 112.022 137.862V105.91H121.419V137.995C121.419 147.728 115.714 152.159 107.39 152.159C99.8722 152.159 95.5086 148.265 93.2933 143.566L93.2937 143.567ZM126.524 142.56L134.175 138.13C136.19 141.42 138.808 143.836 143.439 143.836C147.333 143.836 149.816 141.889 149.816 139.204C149.816 135.982 147.265 134.841 142.969 132.962L140.62 131.954C133.84 129.068 129.343 125.443 129.343 117.791C129.343 110.743 134.713 105.372 143.104 105.372C149.078 105.372 153.374 107.454 156.462 112.891L149.144 117.59C147.533 114.704 145.789 113.563 143.103 113.563C140.351 113.563 138.606 115.308 138.606 117.59C138.606 120.409 140.351 121.551 144.378 123.296L146.728 124.303C154.716 127.727 159.213 131.217 159.213 139.07C159.213 147.529 152.568 152.16 143.64 152.16C134.914 152.16 129.275 147.998 126.523 142.561" fill="black"/>
<path d="M70 194C70 187.925 74.9249 183 81 183H153C159.075 183 164 187.925 164 194C164 200.075 159.075 205 153 205H81C74.9249 205 70 200.075 70 194Z" fill="black"/>
<path d="M86.432 196.256V189.968H87.792V196.336C87.792 197.659 87.504 198.624 86.928 199.232C86.352 199.829 85.4186 200.128 84.128 200.128C83.7653 200.128 83.4293 200.112 83.12 200.08C82.8106 200.048 82.528 199.995 82.272 199.92V198.672C82.5706 198.736 82.848 198.784 83.104 198.816C83.3706 198.837 83.6533 198.848 83.952 198.848C84.88 198.848 85.5253 198.656 85.888 198.272C86.2506 197.888 86.432 197.216 86.432 196.256Z" fill="white"/>
<path d="M91.7073 200.128C90.8967 200.128 90.2993 199.936 89.9153 199.552C89.542 199.157 89.3553 198.539 89.3553 197.696C89.3553 196.843 89.5847 196.24 90.0433 195.888C90.502 195.525 91.2807 195.344 92.3793 195.344C92.742 195.344 93.0993 195.36 93.4513 195.392C93.8033 195.424 94.134 195.472 94.4433 195.536V194.768C94.4433 194.181 94.294 193.76 93.9953 193.504C93.6967 193.248 93.2167 193.12 92.5553 193.12C92.0647 193.12 91.6327 193.141 91.2593 193.184C90.886 193.216 90.5127 193.275 90.1393 193.36V192.224C90.566 192.117 90.998 192.043 91.4353 192C91.8833 191.957 92.39 191.936 92.9553 191.936C93.9047 191.936 94.6087 192.16 95.0673 192.608C95.526 193.045 95.7553 193.728 95.7553 194.656V200H94.5553L94.4913 199.264H94.4593C94.1393 199.52 93.7233 199.728 93.2113 199.888C92.71 200.048 92.2087 200.128 91.7073 200.128ZM92.5233 196.416C91.798 196.416 91.2913 196.507 91.0033 196.688C90.726 196.859 90.5873 197.168 90.5873 197.616C90.5873 198.085 90.7047 198.427 90.9393 198.64C91.174 198.843 91.558 198.944 92.0913 198.944C92.5073 198.944 92.934 198.88 93.3713 198.752C93.8087 198.624 94.166 198.464 94.4433 198.272V196.576C94.0913 196.523 93.7607 196.485 93.4513 196.464C93.1527 196.432 92.8433 196.416 92.5233 196.416Z" fill="white"/>
<path d="M102.898 192.096H104.338L101.298 200H99.7937L96.7537 192.096H98.2097L100.562 198.8L102.898 192.096Z" fill="white"/>
<path d="M107.207 200.128C106.397 200.128 105.799 199.936 105.415 199.552C105.042 199.157 104.855 198.539 104.855 197.696C104.855 196.843 105.085 196.24 105.543 195.888C106.002 195.525 106.781 195.344 107.879 195.344C108.242 195.344 108.599 195.36 108.951 195.392C109.303 195.424 109.634 195.472 109.943 195.536V194.768C109.943 194.181 109.794 193.76 109.495 193.504C109.197 193.248 108.717 193.12 108.055 193.12C107.565 193.12 107.133 193.141 106.759 193.184C106.386 193.216 106.013 193.275 105.639 193.36V192.224C106.066 192.117 106.498 192.043 106.935 192C107.383 191.957 107.89 191.936 108.455 191.936C109.405 191.936 110.109 192.16 110.567 192.608C111.026 193.045 111.255 193.728 111.255 194.656V200H110.055L109.991 199.264H109.959C109.639 199.52 109.223 199.728 108.711 199.888C108.21 200.048 107.709 200.128 107.207 200.128ZM108.023 196.416C107.298 196.416 106.791 196.507 106.503 196.688C106.226 196.859 106.087 197.168 106.087 197.616C106.087 198.085 106.205 198.427 106.439 198.64C106.674 198.843 107.058 198.944 107.591 198.944C108.007 198.944 108.434 198.88 108.871 198.752C109.309 198.624 109.666 198.464 109.943 198.272V196.576C109.591 196.523 109.261 196.485 108.951 196.464C108.653 196.432 108.343 196.416 108.023 196.416Z" fill="white"/>
<path d="M117.274 195.792L114.842 195.216C114.17 195.056 113.685 194.784 113.386 194.4C113.087 194.005 112.938 193.461 112.938 192.768C112.938 191.755 113.226 191.008 113.802 190.528C114.389 190.048 115.295 189.808 116.522 189.808C117.034 189.808 117.493 189.835 117.898 189.888C118.314 189.931 118.698 190 119.05 190.096V191.328C118.602 191.221 118.175 191.147 117.77 191.104C117.365 191.061 116.943 191.04 116.506 191.04C115.685 191.04 115.109 191.163 114.778 191.408C114.447 191.643 114.282 192.064 114.282 192.672C114.282 193.056 114.357 193.349 114.506 193.552C114.666 193.744 114.922 193.883 115.274 193.968L117.69 194.544C118.543 194.747 119.109 195.035 119.386 195.408C119.674 195.771 119.818 196.336 119.818 197.104C119.818 198.203 119.53 198.981 118.954 199.44C118.389 199.899 117.487 200.128 116.25 200.128C115.599 200.128 114.97 200.085 114.362 200C113.765 199.915 113.29 199.803 112.938 199.664V198.384C113.439 198.533 113.973 198.651 114.538 198.736C115.103 198.811 115.674 198.848 116.25 198.848C117.05 198.848 117.61 198.731 117.93 198.496C118.25 198.261 118.41 197.808 118.41 197.136C118.41 196.72 118.33 196.421 118.17 196.24C118.021 196.048 117.722 195.899 117.274 195.792Z" fill="white"/>
<path d="M126.888 198.432V199.536C126.622 199.707 126.222 199.851 125.688 199.968C125.166 200.075 124.616 200.128 124.04 200.128C122.92 200.128 122.131 199.824 121.672 199.216C121.224 198.608 121 197.547 121 196.032C121 194.549 121.294 193.499 121.88 192.88C122.467 192.251 123.464 191.936 124.872 191.936C125.182 191.936 125.459 191.947 125.704 191.968C125.96 191.979 126.286 192.011 126.68 192.064V193.232C126.286 193.179 125.96 193.147 125.704 193.136C125.459 193.125 125.182 193.12 124.872 193.12C123.87 193.12 123.192 193.328 122.84 193.744C122.488 194.149 122.312 194.912 122.312 196.032C122.312 197.152 122.451 197.915 122.728 198.32C123.006 198.715 123.539 198.912 124.328 198.912C124.766 198.912 125.219 198.869 125.688 198.784C126.158 198.688 126.558 198.571 126.888 198.432Z" fill="white"/>
<path d="M129.712 200H128.4V192.096H129.6L129.664 192.768H129.728C130.144 192.523 130.56 192.341 130.976 192.224C131.392 192.096 131.802 192.032 132.208 192.032C132.378 192.032 132.49 192.032 132.544 192.032C132.608 192.032 132.656 192.037 132.688 192.048V193.312C132.613 193.291 132.517 193.28 132.4 193.28C132.293 193.269 132.122 193.264 131.888 193.264C131.504 193.264 131.125 193.312 130.752 193.408C130.389 193.493 130.042 193.627 129.712 193.808V200Z" fill="white"/>
<path d="M135.4 190.72H133.992V189.36H135.4V190.72ZM135.352 200H134.04V192.096H135.352V200Z" fill="white"/>
<path d="M138.774 202.432H137.462V192.096H138.598L138.678 192.8H138.726C139.057 192.523 139.452 192.309 139.91 192.16C140.369 192.011 140.86 191.936 141.382 191.936C142.46 191.936 143.228 192.256 143.686 192.896C144.156 193.536 144.39 194.581 144.39 196.032C144.39 197.483 144.108 198.528 143.542 199.168C142.977 199.808 142.033 200.128 140.71 200.128C140.316 200.128 139.953 200.101 139.622 200.048C139.302 199.995 139.02 199.915 138.774 199.808V202.432ZM143.078 196.032C143.078 194.944 142.924 194.187 142.614 193.76C142.316 193.333 141.75 193.12 140.918 193.12C140.524 193.12 140.145 193.179 139.782 193.296C139.43 193.403 139.094 193.563 138.774 193.776V198.592C139.041 198.699 139.313 198.779 139.59 198.832C139.878 198.885 140.198 198.912 140.55 198.912C141.542 198.912 142.209 198.709 142.55 198.304C142.902 197.888 143.078 197.131 143.078 196.032Z" fill="white"/>
<path d="M150.68 198.768V199.872C150.51 199.947 150.275 200.005 149.976 200.048C149.688 200.101 149.411 200.128 149.144 200.128C148.184 200.128 147.496 199.915 147.08 199.488C146.675 199.061 146.472 198.325 146.472 197.28V193.216H145.288V192.096H146.488L146.696 190.176H147.784V192.096H150.6V193.216H147.784V197.232C147.784 197.883 147.902 198.325 148.136 198.56C148.382 198.795 148.808 198.912 149.416 198.912C149.608 198.912 149.827 198.896 150.072 198.864C150.328 198.832 150.531 198.8 150.68 198.768Z" fill="white"/>
<defs>
<filter id="filter0_d" x="0.604279" y="0.368701" width="232.097" height="232.097" filterUnits="userSpaceOnUse" color-interpolation-filters="sRGB">
<feFlood flood-opacity="0" result="BackgroundImageFix"/>
<feColorMatrix in="SourceAlpha" type="matrix" values="0 0 0 0 0 0 0 0 0 0 0 0 0 0 0 0 0 0 127 0"/>
<feOffset dy="6.63134"/>
<feGaussianBlur stdDeviation="16.5783"/>
<feColorMatrix type="matrix" values="0 0 0 0 0 0 0 0 0 0 0 0 0 0 0 0 0 0 0.5 0"/>
<feBlend mode="normal" in2="BackgroundImageFix" result="effect1_dropShadow"/>
<feBlend mode="normal" in="SourceGraphic" in2="effect1_dropShadow" result="shape"/>
</filter>
</defs>
</svg>
