<svg width="234" height="233" viewBox="0 0 234 233" fill="none" xmlns="http://www.w3.org/2000/svg">
<g filter="url(#filter0_d)">
<rect x="33.9999" y="26.894" width="165.853" height="165.853" rx="24.878" fill="white"/>
</g>
<path d="M78.6304 79.3091L80.7554 82.8427L82.714 86.1099C83.7304 87.8052 84.7468 89.5005 85.7617 91.1958L87.8413 94.6646L90.8742 99.7154L94.5843 105.915C95.6538 107.701 96.7257 109.485 97.7968 111.269L97.9406 111.478C98.096 111.526 98.2195 111.485 98.3476 111.454C99.7593 111.115 101.171 110.779 102.583 110.442C104.873 109.895 107.162 109.35 109.452 108.802L113.039 107.944C115.353 107.391 117.669 106.84 119.984 106.285C122.324 105.726 124.663 105.163 127.003 104.602C128.186 104.319 129.369 104.036 130.552 103.754L137.421 102.116L144.902 100.335L145.305 100.226L145.195 100.007C144.516 99.0443 143.834 98.0834 143.154 97.1216L141.137 94.2669L138.981 91.2216L136.919 88.3021L134.877 85.4169L132.767 82.4357L130.7 79.5208L129.609 77.9826C129.443 77.7458 129.31 77.4919 129.221 77.2154C129.006 76.5466 129.252 76.1021 129.641 75.7732C129.894 75.5591 130.185 75.4029 130.501 75.3099C130.94 75.1802 131.382 75.0568 131.83 74.9724C132.73 74.8029 133.634 74.6583 134.537 74.5083C135.556 74.3388 136.576 74.1771 137.596 74.0091C138.241 73.9029 138.885 73.7912 139.53 73.6818L142.161 73.2388C143.012 73.0958 143.864 72.9544 144.715 72.8146L147.502 72.3591L149.437 72.0333C150.172 71.9107 150.908 71.788 151.643 71.6677C152.56 71.5185 153.476 71.3677 154.394 71.224C154.939 71.1388 155.487 71.1083 156.029 71.2646C156.436 71.3826 156.805 71.5732 157.151 71.8162L157.627 72.149C157.675 72.0388 157.606 71.9794 157.575 71.9162C156.887 70.524 155.948 69.3271 154.758 68.3287C153.649 67.4013 152.405 66.7193 151.029 66.2849C150.216 66.0271 149.381 65.9076 148.53 65.8435L148.112 65.781H86.1882L85.8531 65.8349C85.1078 65.8935 84.3749 66.0044 83.6538 66.2021C82.0749 66.6357 80.6718 67.3888 79.4343 68.456C78.7062 69.0833 78.071 69.7896 77.532 70.5865C76.6999 71.8162 76.132 73.1529 75.8476 74.6404L76.2078 75.2677C77.0148 76.6162 77.8226 77.9623 78.6304 79.3091ZM82.7249 147.922C83.4828 148.214 84.2656 148.419 85.0734 148.518L85.8913 148.554C86.0187 148.571 86.1413 148.594 86.2663 148.594H111.491C111.451 148.594 111.414 148.477 111.369 148.398C110.376 146.704 109.373 145.042 108.392 143.342C107.157 141.2 105.934 139.063 104.716 136.91C103.416 134.61 102.128 132.308 100.837 130.002C99.6117 127.809 98.3882 125.619 97.1671 123.424C96.4296 122.097 95.696 120.771 94.9601 119.444L94.7632 119.14L94.4054 119.211C93.696 119.394 92.9882 119.579 92.2796 119.765C91.2937 120.025 90.3093 120.289 89.3226 120.547C87.1085 121.123 84.8937 121.696 82.6796 122.271C80.4273 122.855 78.2234 123.441 75.9695 124.023C75.8328 124.059 76.3749 124.072 75.5937 124.095V138.083C76.3749 138.165 75.6999 138.313 75.7171 138.456C75.7687 138.87 75.7835 139.287 75.857 139.698C76.1296 141.227 76.7078 142.626 77.5945 143.9C78.8945 145.769 80.6038 147.105 82.7249 147.922ZM77.9421 116.368C80.5484 115.748 83.1546 115.129 85.7609 114.511L89.1953 113.699C89.7671 113.563 90.3421 113.433 90.9093 113.279C91.414 113.143 91.4773 112.976 91.2171 112.519C90.8413 111.86 90.4593 111.205 90.0781 110.549L86.7281 104.781L83.3788 99.0115C82.2429 97.0552 81.1062 95.0982 79.9695 93.1419L77.0507 88.1208L75.8374 85.9482C75.7593 85.8154 76.3757 85.6583 75.5945 85.588V116.944C75.5945 116.922 75.7538 116.904 75.8546 116.88L77.9421 116.368ZM158.154 138.78C157.132 139.144 156.111 139.509 155.089 139.875C152.763 140.708 150.438 141.542 148.112 142.376C146.822 142.84 145.531 143.308 144.238 143.77C141.605 144.711 138.969 145.647 136.334 146.586C134.807 147.129 133.28 147.621 131.754 148.167C131.336 148.318 130.923 148.594 130.509 148.594H148.034L148.412 148.558C148.856 148.539 149.295 148.497 149.733 148.416C151.532 148.087 153.143 147.354 154.569 146.217C155.665 145.344 156.557 144.298 157.255 143.079C157.974 141.825 158.401 140.479 158.605 139.054C158.623 138.931 158.662 138.797 158.559 138.67C158.415 138.659 158.286 138.733 158.154 138.78ZM156.648 115.248C155.875 114.191 155.102 113.136 154.33 112.078C153.266 110.618 152.202 109.156 151.14 107.696C150.708 107.103 150.27 106.515 149.848 105.915C149.721 105.735 149.576 105.687 149.378 105.74L149.265 105.773C147.308 106.248 145.35 106.723 143.392 107.197L139.885 108.048L133.024 109.715C130.762 110.265 128.5 110.815 126.237 111.364C123.886 111.933 121.534 112.501 119.184 113.072C116.871 113.633 114.559 114.197 112.246 114.759C110.009 115.302 107.773 115.846 105.536 116.388C104.354 116.675 103.173 116.961 101.991 117.25C101.817 117.292 101.63 117.302 101.445 117.443L101.603 117.744C102.594 119.454 103.584 121.165 104.577 122.874C105.7 124.81 106.825 126.745 107.952 128.679C109.192 130.804 110.435 132.928 111.677 135.053C112.391 136.273 113.1 137.496 113.819 138.713C114.619 140.065 115.422 141.415 116.237 142.758C116.48 143.161 116.757 143.544 117.036 143.922C117.223 144.175 117.455 144.39 117.729 144.555C118.01 144.726 118.315 144.779 118.634 144.707C118.8 144.669 118.962 144.615 119.122 144.559L119.711 144.341C121.852 143.608 123.992 142.876 126.135 142.147C127.806 141.577 129.479 141.011 131.152 140.446C132.812 139.883 134.473 139.322 136.133 138.762C137.78 138.205 139.429 137.649 141.077 137.093C142.762 136.523 144.448 135.954 146.133 135.383C148.201 134.681 150.269 133.976 152.337 133.276C154.332 132.601 156.327 131.93 158.323 131.258C158.445 131.216 158.58 131.199 158.682 131.065L158.694 130.774C158.694 126.636 158.694 122.497 158.699 118.359C158.699 118.138 158.64 117.96 158.507 117.783C157.881 116.941 157.266 116.094 156.648 115.248ZM156.305 76.2583C155.841 75.6701 155.249 75.4833 154.525 75.6724C154.209 75.7552 153.885 75.8068 153.564 75.8662C152.509 76.0591 151.454 76.249 150.398 76.4404C148.855 76.7208 147.312 77.0044 145.767 77.2818C144.545 77.5021 143.321 77.7177 142.098 77.9326L137.191 78.7912C136.985 78.8271 136.777 78.863 136.58 78.9263C136.291 79.0193 136.206 79.2005 136.338 79.4724C136.447 79.6943 136.581 79.9068 136.727 80.1068C137.741 81.5052 138.761 82.9005 139.78 84.2958C141.184 86.2201 142.591 88.1443 143.996 90.0677C145.185 91.6951 146.376 93.3224 147.566 94.949C148.502 96.2279 149.437 97.5052 150.373 98.7833L150.559 99.0068C153.252 98.3404 155.941 97.6763 158.676 97.0005L158.694 96.5802C158.694 90.949 158.694 85.3185 158.699 79.688C158.699 79.4396 158.638 79.2396 158.483 79.0427C157.799 78.181 157.13 77.3091 156.454 76.4412L156.305 76.2583ZM158.489 103.541C157.261 103.836 156.029 104.117 154.771 104.45C154.905 104.686 158.353 109.342 158.554 109.562L158.68 109.632L158.694 109.348V107.387C158.696 106.251 158.699 105.113 158.696 103.976C158.696 103.837 158.734 103.69 158.64 103.549L158.489 103.541ZM77.1015 164.219V150.833H79.9398V161.875H85.3687V164.219H77.1015ZM95.8882 164.219L94.9179 161.033H90.0382L89.0671 164.219H86.0093L90.7335 150.779H94.2031L98.946 164.219H95.8882ZM94.2398 158.652C93.3429 155.765 92.8374 154.133 92.7249 153.754C92.6124 153.375 92.5312 153.076 92.482 152.857C92.2804 153.638 91.7038 155.57 90.7515 158.652H94.2398ZM103.469 159.083V164.219H100.63V150.833H104.53C106.349 150.833 107.695 151.165 108.568 151.826C109.441 152.488 109.877 153.494 109.877 154.843C109.877 155.63 109.661 156.33 109.227 156.944C108.794 157.557 108.18 158.037 107.387 158.386C109.402 161.395 110.714 163.339 111.324 164.218H108.175L104.98 159.082H103.469V159.083ZM103.469 156.776H104.384C105.281 156.776 105.944 156.626 106.371 156.327C106.798 156.028 107.012 155.558 107.012 154.917C107.012 154.283 106.794 153.83 106.357 153.562C105.92 153.294 105.244 153.159 104.329 153.159H103.469V156.776ZM121.202 164.219L120.232 161.033H115.352L114.381 164.219H111.323L116.048 150.779H119.517L124.26 164.219H121.202ZM119.555 158.652C118.658 155.765 118.152 154.133 118.04 153.754C117.927 153.375 117.846 153.076 117.797 152.857C117.595 153.638 117.019 155.57 116.066 158.652H119.555ZM133.58 150.833H136.446L131.895 164.219H128.801L124.26 150.833H127.126L129.644 158.798C129.784 159.269 129.929 159.816 130.079 160.442C130.229 161.068 130.322 161.502 130.358 161.747C130.425 161.185 130.654 160.202 131.044 158.799L133.58 150.833ZM145.839 164.219H138.13V150.833H145.839V153.159H140.969V156.098H145.501V158.424H140.969V161.875H145.839V164.219ZM148.631 164.219V150.833H151.469V161.875H156.898V164.219H148.631Z" fill="#FD4F31"/>
<rect x="70" y="182" width="94" height="22" rx="11" fill="black"/>
<path d="M100.296 197.72V199H94.152V188.968H95.512V197.72H100.296ZM103.395 199.128C102.584 199.128 101.987 198.936 101.603 198.552C101.23 198.157 101.043 197.539 101.043 196.696C101.043 195.843 101.272 195.24 101.731 194.888C102.19 194.525 102.968 194.344 104.067 194.344C104.43 194.344 104.787 194.36 105.139 194.392C105.491 194.424 105.822 194.472 106.131 194.536V193.768C106.131 193.181 105.982 192.76 105.683 192.504C105.384 192.248 104.904 192.12 104.243 192.12C103.752 192.12 103.32 192.141 102.947 192.184C102.574 192.216 102.2 192.275 101.827 192.36V191.224C102.254 191.117 102.686 191.043 103.123 191C103.571 190.957 104.078 190.936 104.643 190.936C105.592 190.936 106.296 191.16 106.755 191.608C107.214 192.045 107.443 192.728 107.443 193.656V199H106.243L106.179 198.264H106.147C105.827 198.52 105.411 198.728 104.899 198.888C104.398 199.048 103.896 199.128 103.395 199.128ZM104.211 195.416C103.486 195.416 102.979 195.507 102.691 195.688C102.414 195.859 102.275 196.168 102.275 196.616C102.275 197.085 102.392 197.427 102.627 197.64C102.862 197.843 103.246 197.944 103.779 197.944C104.195 197.944 104.622 197.88 105.059 197.752C105.496 197.624 105.854 197.464 106.131 197.272V195.576C105.779 195.523 105.448 195.485 105.139 195.464C104.84 195.432 104.531 195.416 104.211 195.416ZM110.806 199H109.493V191.096H110.694L110.758 191.768H110.822C111.238 191.523 111.654 191.341 112.07 191.224C112.486 191.096 112.896 191.032 113.302 191.032C113.472 191.032 113.584 191.032 113.638 191.032C113.702 191.032 113.75 191.037 113.782 191.048V192.312C113.707 192.291 113.611 192.28 113.494 192.28C113.387 192.269 113.216 192.264 112.982 192.264C112.598 192.264 112.219 192.312 111.846 192.408C111.483 192.493 111.136 192.627 110.806 192.808V199ZM116.723 199.128C115.912 199.128 115.315 198.936 114.931 198.552C114.558 198.157 114.371 197.539 114.371 196.696C114.371 195.843 114.6 195.24 115.059 194.888C115.518 194.525 116.296 194.344 117.395 194.344C117.758 194.344 118.115 194.36 118.467 194.392C118.819 194.424 119.15 194.472 119.459 194.536V193.768C119.459 193.181 119.31 192.76 119.011 192.504C118.712 192.248 118.232 192.12 117.571 192.12C117.08 192.12 116.648 192.141 116.275 192.184C115.902 192.216 115.528 192.275 115.155 192.36V191.224C115.582 191.117 116.014 191.043 116.451 191C116.899 190.957 117.406 190.936 117.971 190.936C118.92 190.936 119.624 191.16 120.083 191.608C120.542 192.045 120.771 192.728 120.771 193.656V199H119.571L119.507 198.264H119.475C119.155 198.52 118.739 198.728 118.227 198.888C117.726 199.048 117.224 199.128 116.723 199.128ZM117.539 195.416C116.814 195.416 116.307 195.507 116.019 195.688C115.742 195.859 115.603 196.168 115.603 196.616C115.603 197.085 115.72 197.427 115.955 197.64C116.19 197.843 116.574 197.944 117.107 197.944C117.523 197.944 117.95 197.88 118.387 197.752C118.824 197.624 119.182 197.464 119.459 197.272V195.576C119.107 195.523 118.776 195.485 118.467 195.464C118.168 195.432 117.859 195.416 117.539 195.416ZM127.913 191.096H129.353L126.313 199H124.809L121.769 191.096H123.225L125.577 197.8L127.913 191.096ZM136.351 197.464V198.568C136.074 198.717 135.663 198.851 135.119 198.968C134.586 199.075 134.042 199.128 133.487 199.128C132.25 199.128 131.365 198.808 130.831 198.168C130.298 197.528 130.031 196.472 130.031 195C130.031 193.581 130.309 192.552 130.863 191.912C131.418 191.261 132.303 190.936 133.519 190.936C134.65 190.936 135.461 191.192 135.951 191.704C136.442 192.205 136.687 193.048 136.687 194.232C136.687 194.445 136.682 194.643 136.671 194.824C136.661 195.005 136.639 195.224 136.607 195.48H131.359C131.37 196.355 131.546 196.979 131.887 197.352C132.239 197.725 132.842 197.912 133.695 197.912C134.154 197.912 134.634 197.869 135.135 197.784C135.637 197.699 136.042 197.592 136.351 197.464ZM135.487 194.056C135.477 193.352 135.322 192.856 135.023 192.568C134.725 192.269 134.223 192.12 133.519 192.12C132.73 192.12 132.17 192.291 131.839 192.632C131.519 192.963 131.359 193.549 131.359 194.392H135.471C135.471 194.371 135.471 194.323 135.471 194.248C135.482 194.163 135.487 194.099 135.487 194.056ZM139.696 188.36V199H138.384V188.36H139.696Z" fill="white"/>
<defs>
<filter id="filter0_d" x="0.829269" y="0.357508" width="232.195" height="232.195" filterUnits="userSpaceOnUse" color-interpolation-filters="sRGB">
<feFlood flood-opacity="0" result="BackgroundImageFix"/>
<feColorMatrix in="SourceAlpha" type="matrix" values="0 0 0 0 0 0 0 0 0 0 0 0 0 0 0 0 0 0 127 0"/>
<feOffset dy="6.63413"/>
<feGaussianBlur stdDeviation="16.5853"/>
<feColorMatrix type="matrix" values="0 0 0 0 0 0 0 0 0 0 0 0 0 0 0 0 0 0 0.5 0"/>
<feBlend mode="normal" in2="BackgroundImageFix" result="effect1_dropShadow"/>
<feBlend mode="normal" in="SourceGraphic" in2="effect1_dropShadow" result="shape"/>
</filter>
</defs>
</svg>
