<svg width="236" height="236" viewBox="0 0 236 236" fill="none" xmlns="http://www.w3.org/2000/svg">
<g filter="url(#filter0_d)">
<rect x="33.6433" y="27.0691" width="167.931" height="167.931" rx="25.1896" fill="white"/>
</g>
<g clip-path="url(#clip0)">
<path d="M118 85.9995C89.9625 85.9995 68 96.9817 68 111C68 125.017 89.9625 136 118 136C146.037 136 168 125.017 168 111C168 96.9817 146.037 85.9995 118 85.9995Z" fill="#303C42"/>
<path d="M118 131.833C106.021 131.833 94.9656 129.601 86.6994 126.038L88.3776 119.333H95.6856C101.195 119.333 105.976 115.6 107.315 110.253L107.679 108.786C108.304 106.296 107.754 103.706 106.176 101.684C104.595 99.6594 102.218 98.4997 99.6508 98.4997H90.9166C89.9604 98.4997 89.1283 99.1506 88.8963 100.078L82.8651 124.204C76.2194 120.58 72.1666 115.96 72.1666 111C72.1666 99.7061 93.1567 90.1663 118 90.1663C142.843 90.1663 163.833 99.7061 163.833 111C163.833 122.293 142.843 131.833 118 131.833Z" fill="#82B1FF"/>
<path opacity="0.2" d="M74.25 113.083C74.25 101.789 95.2401 92.2497 120.083 92.2497C137.481 92.2497 152.958 96.9356 160.691 103.618C153.971 95.8456 137.153 90.1663 118 90.1663C93.1567 90.1663 72.1666 99.7061 72.1666 111C72.1666 114.324 74.0203 117.487 77.2221 120.309C75.3123 118.046 74.25 115.609 74.25 113.083Z" fill="white"/>
<path d="M89.4194 115.167L92.5444 102.667H99.6508C100.924 102.667 102.106 103.242 102.89 104.247C103.675 105.252 103.948 106.538 103.636 107.777L103.272 109.244C102.399 112.731 99.2803 115.167 95.6854 115.167H89.4194Z" fill="#82B1FF"/>
<path d="M89.4194 115.167L92.5444 102.667H99.6508C100.924 102.667 102.106 103.242 102.89 104.247C103.675 105.252 103.948 106.538 103.636 107.777L103.272 109.244C102.399 112.731 99.2803 115.167 95.6854 115.167H89.4194Z" fill="#82B1FF"/>
<path d="M147.567 98.4995H138.833C137.877 98.4995 137.045 99.1505 136.813 100.078L132.656 116.698C132.648 116.729 132.642 116.757 132.634 116.786L130.563 125.078C130.282 126.193 130.962 127.324 132.079 127.603C132.247 127.646 132.418 127.666 132.585 127.666C133.519 127.666 134.367 127.035 134.603 126.087L136.294 119.333H143.602C149.111 119.333 153.893 115.6 155.231 110.253L155.596 108.786C156.22 106.296 155.671 103.706 154.092 101.683C152.511 99.6593 150.135 98.4995 147.567 98.4995ZM151.553 107.777L151.189 109.244C150.316 112.731 147.197 115.166 143.602 115.166H137.336L140.461 102.666H147.567C148.841 102.666 150.023 103.242 150.806 104.247C151.592 105.252 151.864 106.538 151.553 107.777Z" fill="#303C42"/>
<path d="M129.231 101.043C127.914 99.4272 125.965 98.4994 123.88 98.4994H117.275L117.965 94.7051C118.173 93.5739 117.422 92.4895 116.289 92.284C115.164 92.0764 114.072 92.8272 113.868 93.9604L109.701 116.877C109.494 118.008 110.244 119.093 111.378 119.298C111.504 119.323 111.628 119.333 111.752 119.333C112.741 119.333 113.618 118.629 113.799 117.622L116.518 102.666H123.88C124.706 102.666 125.477 103.032 125.998 103.673C126.519 104.314 126.722 105.144 126.553 105.954L124.293 116.826C124.059 117.951 124.783 119.054 125.91 119.29C126.053 119.319 126.195 119.333 126.335 119.333C127.302 119.333 128.168 118.658 128.374 117.673L130.634 106.8C131.057 104.76 130.545 102.66 129.231 101.043Z" fill="#303C42"/>
<path d="M118 85.9995C89.9625 85.9995 68 96.9817 68 111C68 125.017 89.9625 136 118 136C146.037 136 168 125.017 168 111C168 96.9817 146.037 85.9995 118 85.9995Z" fill="url(#paint0_linear)"/>
</g>
<rect x="67" y="184" width="94" height="22" rx="11" fill="black"/>
<path d="M102.512 195.752V199H101.152V188.968H104.56C105.979 188.968 106.992 189.224 107.6 189.736C108.219 190.248 108.528 191.085 108.528 192.248C108.528 193.432 108.208 194.312 107.568 194.888C106.928 195.464 105.941 195.752 104.608 195.752H102.512ZM107.152 192.248C107.152 191.512 106.949 190.989 106.544 190.68C106.149 190.36 105.488 190.2 104.56 190.2H102.512V194.552H104.56C105.488 194.552 106.149 194.371 106.544 194.008C106.949 193.645 107.152 193.059 107.152 192.248ZM111.528 199H110.168V188.968H111.528V193.288H116.776V188.968H118.136V199H116.776V194.536H111.528V199ZM121.793 195.752V199H120.433V188.968H123.841C125.26 188.968 126.273 189.224 126.881 189.736C127.5 190.248 127.809 191.085 127.809 192.248C127.809 193.432 127.489 194.312 126.849 194.888C126.209 195.464 125.223 195.752 123.889 195.752H121.793ZM126.433 192.248C126.433 191.512 126.231 190.989 125.825 190.68C125.431 190.36 124.769 190.2 123.841 190.2H121.793V194.552H123.841C124.769 194.552 125.431 194.371 125.825 194.008C126.231 193.645 126.433 193.059 126.433 192.248Z" fill="white"/>
<defs>
<filter id="filter0_d" x="0.0571556" y="0.200143" width="235.103" height="235.103" filterUnits="userSpaceOnUse" color-interpolation-filters="sRGB">
<feFlood flood-opacity="0" result="BackgroundImageFix"/>
<feColorMatrix in="SourceAlpha" type="matrix" values="0 0 0 0 0 0 0 0 0 0 0 0 0 0 0 0 0 0 127 0"/>
<feOffset dy="6.71724"/>
<feGaussianBlur stdDeviation="16.7931"/>
<feColorMatrix type="matrix" values="0 0 0 0 0 0 0 0 0 0 0 0 0 0 0 0 0 0 0.5 0"/>
<feBlend mode="normal" in2="BackgroundImageFix" result="effect1_dropShadow"/>
<feBlend mode="normal" in="SourceGraphic" in2="effect1_dropShadow" result="shape"/>
</filter>
<linearGradient id="paint0_linear" x1="75.7796" y1="91.3103" x2="160.221" y2="130.697" gradientUnits="userSpaceOnUse">
<stop stop-color="white" stop-opacity="0.2"/>
<stop offset="1" stop-color="white" stop-opacity="0"/>
</linearGradient>
<clipPath id="clip0">
<rect x="68" y="61" width="100" height="100" rx="16.7931" fill="white"/>
</clipPath>
</defs>
</svg>
